<svg width="323" height="179" viewBox="0 0 323 179" fill="none" xmlns="http://www.w3.org/2000/svg">
<g filter="url(#filter0_d)">
<path d="M86.8478 162.405C139.003 177.598 155.827 164.316 162.136 159.29C164.637 157.297 168.62 154.471 168.62 149.471C168.62 144.471 168.62 139.971 168.62 137.471C168.62 132.471 168.62 131.471 164.005 125.971C159.389 120.471 145.309 114.635 132.273 114.049C119.029 113.454 102.994 117.749 82.2211 126.616C41.002 144.209 -5.09612 131.971 12.9469 113.471C30.9899 94.9706 -21.9377 128.124 21.805 142.839C26.8522 144.85 44.757 150.144 86.8478 162.405Z" fill="black"/>
<path d="M235.991 162.405C183.836 177.598 167.012 164.316 160.703 159.29C158.202 157.297 154.219 154.471 154.219 149.471C154.219 144.471 154.219 139.971 154.219 137.471C154.219 132.471 154.219 131.471 158.834 125.971C163.45 120.471 177.53 114.635 190.566 114.049C203.81 113.454 219.845 117.749 240.618 126.616C281.837 144.209 327.935 131.971 309.892 113.471C291.849 94.9706 344.777 128.124 301.034 142.839C295.987 144.85 278.082 150.144 235.991 162.405Z" fill="black"/>
</g>
<g filter="url(#filter1_d)">
<path d="M68.5675 59.6094C66.9855 61.5039 64.7492 62.9785 61.8586 64.0332C58.9679 65.0684 55.7648 65.5859 52.2492 65.5859C48.5578 65.5859 45.3156 64.7852 42.5226 63.1836C39.7492 61.5625 37.6007 59.2188 36.0773 56.1523C34.5734 53.0859 33.8019 49.4824 33.7628 45.3418V42.4414C33.7628 38.1836 34.4757 34.502 35.9015 31.3965C37.3468 28.2715 39.4171 25.8887 42.1125 24.248C44.8273 22.5879 48.0011 21.7578 51.6339 21.7578C56.6925 21.7578 60.6476 22.9688 63.4992 25.3906C66.3507 27.793 68.0402 31.2988 68.5675 35.9082H60.0128C59.6222 33.4668 58.7531 31.6797 57.4054 30.5469C56.0773 29.4141 54.2414 28.8477 51.8976 28.8477C48.9093 28.8477 46.6339 29.9707 45.0714 32.2168C43.5089 34.4629 42.7179 37.8027 42.6984 42.2363V44.9609C42.6984 49.4336 43.548 52.8125 45.2472 55.0977C46.9464 57.3828 49.4367 58.5254 52.7179 58.5254C56.0187 58.5254 58.3722 57.8223 59.7785 56.416V49.0625H51.7804V42.5879H68.5675V59.6094ZM73.841 48.8574C73.841 45.7129 74.4464 42.9102 75.6574 40.4492C76.8683 37.9883 78.6066 36.084 80.8722 34.7363C83.1574 33.3887 85.8039 32.7148 88.8117 32.7148C93.089 32.7148 96.5753 34.0234 99.2707 36.6406C101.986 39.2578 103.499 42.8125 103.812 47.3047L103.87 49.4727C103.87 54.3359 102.513 58.2422 99.798 61.1914C97.0832 64.1211 93.4406 65.5859 88.8703 65.5859C84.3 65.5859 80.6476 64.1211 77.9132 61.1914C75.1984 58.2617 73.841 54.2773 73.841 49.2383V48.8574ZM82.3078 49.4727C82.3078 52.4805 82.8742 54.7852 84.007 56.3867C85.1398 57.9688 86.7609 58.7598 88.8703 58.7598C90.9211 58.7598 92.5226 57.9785 93.675 56.416C94.8273 54.834 95.4035 52.3145 95.4035 48.8574C95.4035 45.9082 94.8273 43.623 93.675 42.002C92.5226 40.3809 90.9015 39.5703 88.8117 39.5703C86.7414 39.5703 85.1398 40.3809 84.007 42.002C82.8742 43.6035 82.3078 46.0938 82.3078 49.4727Z" fill="url(#paint0_linear)" style="mix-blend-mode:darken"/>
<path d="M68.5675 59.6094L69.3351 60.2503L69.5675 59.972V59.6094H68.5675ZM61.8586 64.0332L62.1957 64.9747L62.2013 64.9726L61.8586 64.0332ZM42.5226 63.1836L42.018 64.047L42.0252 64.0511L42.5226 63.1836ZM36.0773 56.1523L35.1795 56.5927L35.1817 56.5973L36.0773 56.1523ZM33.7628 45.3418L32.7628 45.3418L32.7629 45.3512L33.7628 45.3418ZM35.9015 31.3965L34.9939 30.9767L34.9927 30.9792L35.9015 31.3965ZM42.1125 24.248L42.6324 25.1022L42.6342 25.1012L42.1125 24.248ZM63.4992 25.3906L62.8518 26.1528L62.8549 26.1554L63.4992 25.3906ZM68.5675 35.9082V36.9082H69.6885L69.5611 35.7945L68.5675 35.9082ZM60.0128 35.9082L59.0254 36.0662L59.1601 36.9082H60.0128V35.9082ZM57.4054 30.5469L56.7565 31.3077L56.762 31.3124L57.4054 30.5469ZM45.0714 32.2168L44.2505 31.6457L45.0714 32.2168ZM42.6984 42.2363L41.6984 42.2319V42.2363H42.6984ZM59.7785 56.416L60.4856 57.1231L60.7785 56.8302V56.416H59.7785ZM59.7785 49.0625H60.7785V48.0625H59.7785V49.0625ZM51.7804 49.0625H50.7804V50.0625H51.7804V49.0625ZM51.7804 42.5879V41.5879H50.7804V42.5879H51.7804ZM68.5675 42.5879H69.5675V41.5879H68.5675V42.5879ZM67.8 58.9684C66.3555 60.6982 64.2814 62.0847 61.5158 63.0938L62.2013 64.9726C65.217 63.8723 67.6155 62.3096 69.3351 60.2503L67.8 58.9684ZM61.5214 63.0917C58.7534 64.083 55.6663 64.5859 52.2492 64.5859V66.5859C55.8633 66.5859 59.1824 66.0537 62.1957 64.9747L61.5214 63.0917ZM52.2492 64.5859C48.7064 64.5859 45.6406 63.8188 43.0201 62.3161L42.0252 64.0511C44.9906 65.7515 48.4092 66.5859 52.2492 66.5859V64.5859ZM43.0272 62.3203C40.4334 60.8041 38.4156 58.6113 36.9729 55.7074L35.1817 56.5973C36.7859 59.8262 39.065 62.3209 42.018 64.0469L43.0272 62.3203ZM36.9751 55.712C35.5495 52.8053 34.8008 49.3548 34.7628 45.3324L32.7629 45.3512C32.8031 49.6101 33.5973 53.3666 35.1795 56.5927L36.9751 55.712ZM34.7628 45.3418V42.4414H32.7628V45.3418H34.7628ZM34.7628 42.4414C34.7628 38.2932 35.4575 34.7602 36.8103 31.8137L34.9927 30.9792C33.494 34.2437 32.7628 38.074 32.7628 42.4414H34.7628ZM36.8091 31.8163C38.1791 28.8542 40.122 26.6303 42.6324 25.1022L41.5925 23.3938C38.7123 25.147 36.5146 27.6888 34.9939 30.9767L36.8091 31.8163ZM42.6342 25.1012C45.1707 23.5501 48.1586 22.7578 51.6339 22.7578V20.7578C47.8437 20.7578 44.4839 21.6257 41.5908 23.3949L42.6342 25.1012ZM51.6339 22.7578C56.5392 22.7578 60.236 23.9312 62.8518 26.1528L64.1465 24.6284C61.0592 22.0063 56.8459 20.7578 51.6339 20.7578V22.7578ZM62.8549 26.1554C65.4663 28.3555 67.0683 31.6012 67.574 36.0219L69.5611 35.7945C69.0121 30.9965 67.2352 27.2305 64.1435 24.6258L62.8549 26.1554ZM68.5675 34.9082H60.0128V36.9082H68.5675V34.9082ZM61.0003 35.7502C60.5869 33.1668 59.6428 31.1212 58.0489 29.7814L56.762 31.3124C57.8633 32.2381 58.6575 33.7668 59.0254 36.0662L61.0003 35.7502ZM58.0544 29.786C56.4913 28.4528 54.3972 27.8477 51.8976 27.8477V29.8477C54.0856 29.8477 55.6633 30.3753 56.7565 31.3077L58.0544 29.786ZM51.8976 27.8477C48.6174 27.8477 46.0193 29.1031 44.2505 31.6457L45.8923 32.7879C47.2486 30.8383 49.2013 29.8477 51.8976 29.8477V27.8477ZM44.2505 31.6457C42.5206 34.1325 41.7183 37.7104 41.6984 42.2319L43.6984 42.2407C43.7175 37.8951 44.4973 34.7933 45.8923 32.7879L44.2505 31.6457ZM41.6984 42.2363V44.9609H43.6984V42.2363H41.6984ZM41.6984 44.9609C41.6984 49.5342 42.5627 53.1633 44.4448 55.6944L46.0497 54.501C44.5333 52.4617 43.6984 49.333 43.6984 44.9609H41.6984ZM44.4448 55.6944C46.3632 58.2743 49.1754 59.5254 52.7179 59.5254V57.5254C49.698 57.5254 47.5297 56.4913 46.0497 54.501L44.4448 55.6944ZM52.7179 59.5254C56.1182 59.5254 58.8004 58.8083 60.4856 57.1231L59.0714 55.7089C57.9441 56.8362 55.9192 57.5254 52.7179 57.5254V59.5254ZM60.7785 56.416V49.0625H58.7785V56.416H60.7785ZM59.7785 48.0625H51.7804V50.0625H59.7785V48.0625ZM52.7804 49.0625V42.5879H50.7804V49.0625H52.7804ZM51.7804 43.5879H68.5675V41.5879H51.7804V43.5879ZM67.5675 42.5879V59.6094H69.5675V42.5879H67.5675ZM80.8722 34.7363L80.3642 33.875L80.361 33.8769L80.8722 34.7363ZM99.2707 36.6406L98.574 37.3581L98.5766 37.3606L99.2707 36.6406ZM103.812 47.3047L104.811 47.2777L104.811 47.2565L104.809 47.2353L103.812 47.3047ZM103.87 49.4727H104.87V49.4591L104.87 49.4456L103.87 49.4727ZM99.798 61.1914L100.531 61.8711L100.534 61.8687L99.798 61.1914ZM77.9132 61.1914L77.1797 61.8711L77.1822 61.8737L77.9132 61.1914ZM84.007 56.3867L83.1906 56.9642L83.1939 56.9689L84.007 56.3867ZM93.675 56.416L94.4798 57.0096L94.4833 57.0048L93.675 56.416ZM84.007 42.002L84.8234 42.5794L84.8267 42.5748L84.007 42.002ZM74.841 48.8574C74.841 45.8435 75.4206 43.1955 76.5546 40.8907L74.7601 40.0077C73.4723 42.6249 72.841 45.5823 72.841 48.8574H74.841ZM76.5546 40.8907C77.6837 38.5961 79.2912 36.8403 81.3834 35.5958L80.361 33.8769C77.922 35.3277 76.0529 37.3804 74.7601 40.0077L76.5546 40.8907ZM81.3802 35.5977C83.4917 34.3524 85.9582 33.7148 88.8117 33.7148V31.7148C85.6496 31.7148 82.823 32.4249 80.3642 33.875L81.3802 35.5977ZM88.8117 33.7148C92.8679 33.7148 96.0916 34.9476 98.574 37.3581L99.9673 35.9232C97.0591 33.0993 93.3101 31.7148 88.8117 31.7148V33.7148ZM98.5766 37.3606C101.08 39.7737 102.515 43.0782 102.814 47.3741L104.809 47.2353C104.483 42.5468 102.891 38.7419 99.9647 35.9207L98.5766 37.3606ZM102.812 47.3317L102.871 49.4997L104.87 49.4456L104.811 47.2777L102.812 47.3317ZM102.87 49.4727C102.87 54.1414 101.573 57.7872 99.0623 60.5141L100.534 61.8687C103.453 58.6972 104.87 54.5305 104.87 49.4727H102.87ZM99.0645 60.5117C96.567 63.2069 93.2063 64.5859 88.8703 64.5859V66.5859C93.6749 66.5859 97.5993 65.0353 100.531 61.8711L99.0645 60.5117ZM88.8703 64.5859C84.5343 64.5859 81.1622 63.2068 78.6443 60.5091L77.1822 61.8737C80.133 65.0353 84.0656 66.5859 88.8703 66.5859V64.5859ZM78.6467 60.5117C76.1448 57.8117 74.841 54.0939 74.841 49.2383H72.841C72.841 54.4608 74.252 58.7117 77.1797 61.8711L78.6467 60.5117ZM74.841 49.2383V48.8574H72.841V49.2383H74.841ZM81.3078 49.4727C81.3078 52.5841 81.89 55.1255 83.1906 56.9642L84.8234 55.8093C83.8583 54.4448 83.3078 52.3769 83.3078 49.4727H81.3078ZM83.1939 56.9689C84.5322 58.8379 86.4701 59.7598 88.8703 59.7598V57.7598C87.0517 57.7598 85.7474 57.0996 84.82 55.8045L83.1939 56.9689ZM88.8703 59.7598C91.2177 59.7598 93.1268 58.8441 94.4798 57.0096L92.8702 55.8225C91.9184 57.113 90.6244 57.7598 88.8703 57.7598V59.7598ZM94.4833 57.0048C95.8241 55.164 96.4035 52.3827 96.4035 48.8574H94.4035C94.4035 52.2462 93.8305 54.504 92.8667 55.8273L94.4833 57.0048ZM96.4035 48.8574C96.4035 45.7957 95.808 43.2767 94.49 41.4226L92.8599 42.5813C93.8466 43.9694 94.4035 46.0207 94.4035 48.8574H96.4035ZM94.49 41.4226C93.1391 39.5222 91.2059 38.5703 88.8117 38.5703V40.5703C90.5972 40.5703 91.9061 41.2395 92.8599 42.5813L94.49 41.4226ZM88.8117 38.5703C86.4329 38.5703 84.5173 39.5258 83.1873 41.4292L84.8267 42.5748C85.7623 41.2359 87.0498 40.5703 88.8117 40.5703V38.5703ZM83.1906 41.4245C81.8794 43.2782 81.3078 46.0201 81.3078 49.4727H83.3078C83.3078 46.1674 83.869 43.9288 84.8234 42.5794L83.1906 41.4245Z" fill="#E2CFF5"/>
</g>
<path d="M111.016 65V22.3438H125.957C131.133 22.3438 135.059 23.3398 137.734 25.332C140.41 27.3047 141.748 30.2051 141.748 34.0332C141.748 36.123 141.211 37.9688 140.137 39.5703C139.062 41.1523 137.568 42.3145 135.654 43.0566C137.842 43.6035 139.561 44.707 140.811 46.3672C142.08 48.0273 142.715 50.0586 142.715 52.4609C142.715 56.5625 141.406 59.668 138.789 61.7773C136.172 63.8867 132.441 64.9609 127.598 65H111.016ZM119.805 46.4258V57.9395H127.334C129.404 57.9395 131.016 57.4512 132.168 56.4746C133.34 55.4785 133.926 54.1113 133.926 52.373C133.926 48.4668 131.904 46.4844 127.861 46.4258H119.805ZM119.805 40.2148H126.309C130.742 40.1367 132.959 38.3691 132.959 34.9121C132.959 32.9785 132.393 31.5918 131.26 30.752C130.146 29.8926 128.379 29.4629 125.957 29.4629H119.805V40.2148ZM167.148 65C166.758 64.2383 166.475 63.291 166.299 62.1582C164.248 64.4434 161.582 65.5859 158.301 65.5859C155.195 65.5859 152.617 64.6875 150.566 62.8906C148.535 61.0938 147.52 58.8281 147.52 56.0938C147.52 52.7344 148.76 50.1562 151.24 48.3594C153.74 46.5625 157.344 45.6543 162.051 45.6348H165.947V43.8184C165.947 42.3535 165.566 41.1816 164.805 40.3027C164.062 39.4238 162.881 38.9844 161.26 38.9844C159.834 38.9844 158.711 39.3262 157.891 40.0098C157.09 40.6934 156.689 41.6309 156.689 42.8223H148.223C148.223 40.9863 148.789 39.2871 149.922 37.7246C151.055 36.1621 152.656 34.9414 154.727 34.0625C156.797 33.1641 159.121 32.7148 161.699 32.7148C165.605 32.7148 168.701 33.7012 170.986 35.6738C173.291 37.627 174.443 40.3809 174.443 43.9355V57.6758C174.463 60.6836 174.883 62.959 175.703 64.502V65H167.148ZM160.146 59.1113C161.396 59.1113 162.549 58.8379 163.604 58.291C164.658 57.7246 165.439 56.9727 165.947 56.0352V50.5859H162.783C158.545 50.5859 156.289 52.0508 156.016 54.9805L155.986 55.4785C155.986 56.5332 156.357 57.4023 157.1 58.0859C157.842 58.7695 158.857 59.1113 160.146 59.1113ZM198.76 41.2402C197.607 41.084 196.592 41.0059 195.713 41.0059C192.51 41.0059 190.41 42.0898 189.414 44.2578V65H180.947V33.3008H188.945L189.18 37.0801C190.879 34.1699 193.232 32.7148 196.24 32.7148C197.178 32.7148 198.057 32.8418 198.877 33.0957L198.76 41.2402ZM231.426 49.4434C231.426 54.5215 230.342 58.4863 228.174 61.3379C226.006 64.1699 222.979 65.5859 219.092 65.5859C215.654 65.5859 212.91 64.2676 210.859 61.6309L210.479 65H202.861V20H211.328V36.1426C213.281 33.8574 215.85 32.7148 219.033 32.7148C222.9 32.7148 225.928 34.1406 228.115 36.9922C230.322 39.8242 231.426 43.8184 231.426 48.9746V49.4434ZM222.959 48.8281C222.959 45.625 222.451 43.291 221.436 41.8262C220.42 40.3418 218.906 39.5996 216.895 39.5996C214.199 39.5996 212.344 40.7031 211.328 42.9102V55.4199C212.363 57.6465 214.238 58.7598 216.953 58.7598C219.688 58.7598 221.484 57.4121 222.344 54.7168C222.754 53.4277 222.959 51.4648 222.959 48.8281ZM251.26 65.5859C246.611 65.5859 242.822 64.1602 239.893 61.3086C236.982 58.457 235.527 54.6582 235.527 49.9121V49.0918C235.527 45.9082 236.143 43.0664 237.373 40.5664C238.604 38.0469 240.342 36.1133 242.588 34.7656C244.854 33.3984 247.432 32.7148 250.322 32.7148C254.658 32.7148 258.066 34.082 260.547 36.8164C263.047 39.5508 264.297 43.4277 264.297 48.4473V51.9043H244.111C244.385 53.9746 245.205 55.6348 246.572 56.8848C247.959 58.1348 249.707 58.7598 251.816 58.7598C255.078 58.7598 257.627 57.5781 259.463 55.2148L263.623 59.873C262.354 61.6699 260.635 63.0762 258.467 64.0918C256.299 65.0879 253.896 65.5859 251.26 65.5859ZM250.293 39.5703C248.613 39.5703 247.246 40.1367 246.191 41.2695C245.156 42.4023 244.492 44.0234 244.199 46.1328H255.977V45.459C255.938 43.584 255.43 42.1387 254.453 41.123C253.477 40.0879 252.09 39.5703 250.293 39.5703ZM286.943 41.2402C285.791 41.084 284.775 41.0059 283.896 41.0059C280.693 41.0059 278.594 42.0898 277.598 44.2578V65H269.131V33.3008H277.129L277.363 37.0801C279.062 34.1699 281.416 32.7148 284.424 32.7148C285.361 32.7148 286.24 32.8418 287.061 33.0957L286.943 41.2402Z" fill="url(#paint1_linear)" fill-opacity="0.85" style="mix-blend-mode:hard-light"/>
<path d="M111.016 65H110.016V66H111.016V65ZM111.016 22.3438V21.3438H110.016V22.3438H111.016ZM137.734 25.332L137.137 26.1341L137.141 26.1369L137.734 25.332ZM140.137 39.5703L140.964 40.1321L140.967 40.1273L140.137 39.5703ZM135.654 43.0566L135.293 42.1243L132.356 43.2629L135.412 44.0268L135.654 43.0566ZM140.811 46.3672L140.012 46.9687L140.016 46.9746L140.811 46.3672ZM127.598 65V66L127.606 66L127.598 65ZM119.805 46.4258V45.4258H118.805V46.4258H119.805ZM119.805 57.9395H118.805V58.9395H119.805V57.9395ZM132.168 56.4746L132.814 57.2375L132.816 57.2365L132.168 56.4746ZM127.861 46.4258L127.876 45.4259L127.869 45.4258H127.861V46.4258ZM119.805 40.2148H118.805V41.2148H119.805V40.2148ZM126.309 40.2148V41.2148H126.317L126.326 41.2147L126.309 40.2148ZM131.26 30.752L130.649 31.5435L130.656 31.5495L130.664 31.5553L131.26 30.752ZM119.805 29.4629V28.4629H118.805V29.4629H119.805ZM112.016 65V22.3438H110.016V65H112.016ZM111.016 23.3438H125.957V21.3438H111.016V23.3438ZM125.957 23.3438C131.029 23.3438 134.706 24.3239 137.137 26.1341L138.332 24.5299C135.411 22.3558 131.237 21.3438 125.957 21.3438V23.3438ZM137.141 26.1369C139.52 27.8907 140.748 30.4677 140.748 34.0332H142.748C142.748 29.9424 141.3 26.7187 138.328 24.5271L137.141 26.1369ZM140.748 34.0332C140.748 35.942 140.261 37.5903 139.306 39.0133L140.967 40.1273C142.161 38.3472 142.748 36.3041 142.748 34.0332H140.748ZM139.309 39.0086C138.358 40.4101 137.032 41.4498 135.293 42.1243L136.016 43.989C138.105 43.1791 139.767 41.8946 140.964 40.1321L139.309 39.0086ZM135.412 44.0268C137.397 44.5232 138.911 45.5075 140.012 46.9687L141.609 45.7657C140.21 43.9066 138.286 42.6839 135.897 42.0865L135.412 44.0268ZM140.016 46.9746C141.133 48.435 141.715 50.2439 141.715 52.4609H143.715C143.715 49.8733 143.027 47.6197 141.605 45.7597L140.016 46.9746ZM141.715 52.4609C141.715 56.3335 140.491 59.121 138.162 60.9987L139.417 62.5559C142.321 60.215 143.715 56.7915 143.715 52.4609H141.715ZM138.162 60.9987C135.783 62.916 132.304 63.962 127.59 64L127.606 66C132.578 65.9599 136.561 64.8575 139.417 62.5559L138.162 60.9987ZM127.598 64H111.016V66H127.598V64ZM118.805 46.4258V57.9395H120.805V46.4258H118.805ZM119.805 58.9395H127.334V56.9395H119.805V58.9395ZM127.334 58.9395C129.553 58.9395 131.424 58.4156 132.814 57.2375L131.521 55.7117C130.607 56.4867 129.255 56.9395 127.334 56.9395V58.9395ZM132.816 57.2365C134.242 56.0244 134.926 54.3619 134.926 52.373H132.926C132.926 53.8607 132.438 54.9326 131.52 55.7127L132.816 57.2365ZM134.926 52.373C134.926 50.2557 134.376 48.4841 133.11 47.2426C131.85 46.007 130.044 45.4573 127.876 45.4259L127.847 47.4257C129.721 47.4528 130.948 47.9236 131.709 48.6705C132.465 49.4114 132.926 50.5841 132.926 52.373H134.926ZM127.861 45.4258H119.805V47.4258H127.861V45.4258ZM119.805 41.2148H126.309V39.2148H119.805V41.2148ZM126.326 41.2147C128.647 41.1738 130.566 40.692 131.92 39.6124C133.318 38.4972 133.959 36.8711 133.959 34.9121H131.959C131.959 36.4101 131.491 37.3963 130.673 38.0487C129.81 38.7367 128.404 39.1778 126.291 39.215L126.326 41.2147ZM133.959 34.9121C133.959 32.7883 133.329 31.0415 131.855 29.9486L130.664 31.5553C131.456 32.1421 131.959 33.1688 131.959 34.9121H133.959ZM131.871 29.9604C130.495 28.8986 128.456 28.4629 125.957 28.4629V30.4629C128.302 30.4629 129.798 30.8866 130.649 31.5435L131.871 29.9604ZM125.957 28.4629H119.805V30.4629H125.957V28.4629ZM118.805 29.4629V40.2148H120.805V29.4629H118.805ZM167.148 65L166.259 65.4563L166.537 66H167.148V65ZM166.299 62.1582L167.287 62.0049L166.964 59.9203L165.555 61.4903L166.299 62.1582ZM150.566 62.8906L149.904 63.6396L149.907 63.6428L150.566 62.8906ZM151.24 48.3594L150.657 47.5474L150.654 47.5495L151.24 48.3594ZM162.051 45.6348V44.6348L162.047 44.6348L162.051 45.6348ZM165.947 45.6348V46.6348H166.947V45.6348H165.947ZM164.805 40.3027L164.041 40.948L164.049 40.9577L164.805 40.3027ZM157.891 40.0098L157.25 39.2415L157.241 39.2492L157.891 40.0098ZM156.689 42.8223V43.8223H157.689V42.8223H156.689ZM148.223 42.8223H147.223V43.8223H148.223V42.8223ZM154.727 34.0625L155.117 34.983L155.125 34.9798L154.727 34.0625ZM170.986 35.6738L170.333 36.4308L170.34 36.4367L170.986 35.6738ZM174.443 57.6758L173.443 57.6758L173.443 57.6823L174.443 57.6758ZM175.703 64.502H176.703V64.2527L176.586 64.0325L175.703 64.502ZM175.703 65V66H176.703V65H175.703ZM163.604 58.291L164.064 59.1788L164.07 59.1754L164.077 59.172L163.604 58.291ZM165.947 56.0352L166.827 56.5114L166.947 56.2886V56.0352H165.947ZM165.947 50.5859H166.947V49.5859H165.947V50.5859ZM156.016 54.9805L155.02 54.8875L155.018 54.9046L155.017 54.9217L156.016 54.9805ZM155.986 55.4785L154.988 55.4198L154.986 55.4491V55.4785H155.986ZM168.038 64.5437C167.71 63.9031 167.452 63.0656 167.287 62.0049L165.311 62.3115C165.498 63.5165 165.806 64.5734 166.259 65.4563L168.038 64.5437ZM165.555 61.4903C163.708 63.5483 161.32 64.5859 158.301 64.5859V66.5859C161.844 66.5859 164.788 65.3384 167.043 62.8261L165.555 61.4903ZM158.301 64.5859C155.402 64.5859 153.069 63.7534 151.225 62.1385L149.907 63.6428C152.166 65.6216 154.989 66.5859 158.301 66.5859V64.5859ZM151.229 62.1416C149.414 60.5364 148.52 58.5444 148.52 56.0938H146.52C146.52 59.1119 147.656 61.6511 149.904 63.6396L151.229 62.1416ZM148.52 56.0938C148.52 53.0189 149.634 50.7578 151.827 49.1692L150.654 47.5495C147.886 49.5547 146.52 52.4499 146.52 56.0938H148.52ZM151.824 49.1714C154.087 47.5447 157.453 46.6539 162.055 46.6348L162.047 44.6348C157.235 44.6547 153.393 45.5803 150.657 47.5474L151.824 49.1714ZM162.051 46.6348H165.947V44.6348H162.051V46.6348ZM166.947 45.6348V43.8184H164.947V45.6348H166.947ZM166.947 43.8184C166.947 42.1773 166.517 40.7519 165.56 39.6478L164.049 40.9577C164.616 41.6114 164.947 42.5297 164.947 43.8184H166.947ZM165.569 39.6576C164.568 38.4728 163.05 37.9844 161.26 37.9844V39.9844C162.712 39.9844 163.557 40.3748 164.041 40.9479L165.569 39.6576ZM161.26 37.9844C159.679 37.9844 158.303 38.3644 157.25 39.2415L158.531 40.778C159.119 40.2879 159.989 39.9844 161.26 39.9844V37.9844ZM157.241 39.2492C156.187 40.1491 155.689 41.3813 155.689 42.8223H157.689C157.689 41.8804 157.992 41.2376 158.54 40.7703L157.241 39.2492ZM156.689 41.8223H148.223V43.8223H156.689V41.8223ZM149.223 42.8223C149.223 41.2084 149.716 39.7127 150.731 38.3116L149.112 37.1376C147.862 38.8615 147.223 40.7643 147.223 42.8223H149.223ZM150.731 38.3116C151.741 36.9191 153.186 35.8028 155.117 34.983L154.336 33.142C152.126 34.08 150.368 35.4051 149.112 37.1376L150.731 38.3116ZM155.125 34.9798C157.053 34.1432 159.239 33.7148 161.699 33.7148V31.7148C159.004 31.7148 156.541 32.185 154.328 33.1452L155.125 34.9798ZM161.699 33.7148C165.438 33.7148 168.277 34.6563 170.333 36.4308L171.64 34.9169C169.125 32.746 165.773 31.7148 161.699 31.7148V33.7148ZM170.34 36.4367C172.38 38.1656 173.443 40.6173 173.443 43.9355H175.443C175.443 40.1444 174.202 37.0883 171.633 34.9109L170.34 36.4367ZM173.443 43.9355V57.6758H175.443V43.9355H173.443ZM173.443 57.6823C173.463 60.7505 173.888 63.2174 174.82 64.9714L176.586 64.0325C175.878 62.7006 175.462 60.6167 175.443 57.6693L173.443 57.6823ZM174.703 64.502V65H176.703V64.502H174.703ZM175.703 64H167.148V66H175.703V64ZM160.146 60.1113C161.548 60.1113 162.859 59.8033 164.064 59.1788L163.143 57.4033C162.238 57.8725 161.245 58.1113 160.146 58.1113V60.1113ZM164.077 59.172C165.281 58.525 166.215 57.6412 166.827 56.5114L165.068 55.5589C164.664 56.3041 164.035 56.9243 163.13 57.41L164.077 59.172ZM166.947 56.0352V50.5859H164.947V56.0352H166.947ZM165.947 49.5859H162.783V51.5859H165.947V49.5859ZM162.783 49.5859C160.573 49.5859 158.726 49.9637 157.368 50.8459C155.957 51.762 155.182 53.151 155.02 54.8875L157.011 55.0734C157.123 53.8803 157.612 53.072 158.457 52.5233C159.355 51.9406 160.755 51.5859 162.783 51.5859V49.5859ZM155.017 54.9217L154.988 55.4198L156.985 55.5372L157.014 55.0392L155.017 54.9217ZM154.986 55.4785C154.986 56.7984 155.464 57.9391 156.422 58.8215L157.777 57.3504C157.251 56.8656 156.986 56.268 156.986 55.4785H154.986ZM156.422 58.8215C157.396 59.7184 158.679 60.1113 160.146 60.1113V58.1113C159.036 58.1113 158.288 57.8207 157.777 57.3504L156.422 58.8215ZM198.76 41.2402L198.625 42.2312L199.743 42.3828L199.76 41.2546L198.76 41.2402ZM189.414 44.2578L188.505 43.8403L188.414 44.0391V44.2578H189.414ZM189.414 65V66H190.414V65H189.414ZM180.947 65H179.947V66H180.947V65ZM180.947 33.3008V32.3008H179.947V33.3008H180.947ZM188.945 33.3008L189.943 33.2389L189.885 32.3008H188.945V33.3008ZM189.18 37.0801L188.182 37.142L188.385 40.4241L190.043 37.5843L189.18 37.0801ZM198.877 33.0957L199.877 33.1101L199.888 32.3617L199.173 32.1404L198.877 33.0957ZM198.894 40.2493C197.711 40.0888 196.648 40.0059 195.713 40.0059V42.0059C196.535 42.0059 197.504 42.0792 198.625 42.2312L198.894 40.2493ZM195.713 40.0059C192.278 40.0059 189.722 41.1928 188.505 43.8403L190.323 44.6753C191.099 42.9869 192.742 42.0059 195.713 42.0059V40.0059ZM188.414 44.2578V65H190.414V44.2578H188.414ZM189.414 64H180.947V66H189.414V64ZM181.947 65V33.3008H179.947V65H181.947ZM180.947 34.3008H188.945V32.3008H180.947V34.3008ZM187.947 33.3627L188.182 37.142L190.178 37.0182L189.943 33.2389L187.947 33.3627ZM190.043 37.5843C191.589 34.9367 193.637 33.7148 196.24 33.7148V31.7148C192.828 31.7148 190.169 33.4032 188.316 36.5758L190.043 37.5843ZM196.24 33.7148C197.087 33.7148 197.865 33.8293 198.581 34.051L199.173 32.1404C198.248 31.8543 197.269 31.7148 196.24 31.7148V33.7148ZM197.877 33.0813L197.76 41.2258L199.76 41.2546L199.877 33.1101L197.877 33.0813ZM228.174 61.3379L228.968 61.9458L228.97 61.9431L228.174 61.3379ZM210.859 61.6309L211.649 61.0169L210.141 59.079L209.866 61.5185L210.859 61.6309ZM210.479 65V66H211.372L211.472 65.1123L210.479 65ZM202.861 65H201.861V66H202.861V65ZM202.861 20V19H201.861V20H202.861ZM211.328 20H212.328V19H211.328V20ZM211.328 36.1426H210.328V38.8517L212.088 36.7923L211.328 36.1426ZM228.115 36.9922L227.322 37.6009L227.326 37.6069L228.115 36.9922ZM221.436 41.8262L220.61 42.3909L220.614 42.396L221.436 41.8262ZM211.328 42.9102L210.42 42.4921L210.328 42.6911V42.9102H211.328ZM211.328 55.4199H210.328V55.641L210.421 55.8415L211.328 55.4199ZM222.344 54.7168L223.296 55.0206L223.297 55.02L222.344 54.7168ZM230.426 49.4434C230.426 54.3917 229.368 58.1146 227.378 60.7327L228.97 61.9431C231.315 58.8581 232.426 54.6513 232.426 49.4434H230.426ZM227.38 60.73C225.42 63.2904 222.699 64.5859 219.092 64.5859V66.5859C223.258 66.5859 226.592 65.0495 228.968 61.9457L227.38 60.73ZM219.092 64.5859C215.952 64.5859 213.504 63.4019 211.649 61.0169L210.07 62.2448C212.317 65.1333 215.356 66.5859 219.092 66.5859V64.5859ZM209.866 61.5185L209.485 64.8877L211.472 65.1123L211.853 61.7432L209.866 61.5185ZM210.479 64H202.861V66H210.479V64ZM203.861 65V20H201.861V65H203.861ZM202.861 21H211.328V19H202.861V21ZM210.328 20V36.1426H212.328V20H210.328ZM212.088 36.7923C213.839 34.744 216.122 33.7148 219.033 33.7148V31.7148C215.577 31.7148 212.723 32.9709 210.568 35.4929L212.088 36.7923ZM219.033 33.7148C222.617 33.7148 225.34 35.0169 227.322 37.6008L228.909 36.3835C226.516 33.2643 223.184 31.7148 219.033 31.7148V33.7148ZM227.326 37.6069C229.348 40.2011 230.426 43.9468 230.426 48.9746H232.426C232.426 43.69 231.296 39.4474 228.904 36.3775L227.326 37.6069ZM230.426 48.9746V49.4434H232.426V48.9746H230.426ZM223.959 48.8281C223.959 45.563 223.45 42.976 222.257 41.2564L220.614 42.396C221.453 43.606 221.959 45.687 221.959 48.8281H223.959ZM222.261 41.2615C221.034 39.469 219.191 38.5996 216.895 38.5996V40.5996C218.622 40.5996 219.805 41.2146 220.61 42.3909L222.261 41.2615ZM216.895 38.5996C215.411 38.5996 214.087 38.9038 212.97 39.5678C211.847 40.2358 211.001 41.2286 210.42 42.4921L212.237 43.3282C212.671 42.3847 213.26 41.7223 213.993 41.2867C214.732 40.8472 215.682 40.5996 216.895 40.5996V38.5996ZM210.328 42.9102V55.4199H212.328V42.9102H210.328ZM210.421 55.8415C211.013 57.1136 211.868 58.1125 213 58.7847C214.126 59.453 215.46 59.7598 216.953 59.7598V57.7598C215.732 57.7598 214.771 57.5099 214.021 57.0649C213.278 56.6238 212.679 55.9528 212.235 54.9983L210.421 55.8415ZM216.953 59.7598C218.489 59.7598 219.845 59.3789 220.952 58.549C222.055 57.7214 222.82 56.5146 223.296 55.0206L221.391 54.413C221.008 55.6144 220.445 56.429 219.752 56.949C219.061 57.4668 218.152 57.7598 216.953 57.7598V59.7598ZM223.297 55.02C223.755 53.579 223.959 51.4896 223.959 48.8281H221.959C221.959 51.4401 221.753 53.2764 221.391 54.4136L223.297 55.02ZM239.893 61.3086L239.193 62.0229L239.195 62.0252L239.893 61.3086ZM237.373 40.5664L238.27 41.008L238.272 41.0052L237.373 40.5664ZM242.588 34.7656L243.102 35.6231L243.105 35.6218L242.588 34.7656ZM260.547 36.8164L259.806 37.4883L259.809 37.4912L260.547 36.8164ZM264.297 51.9043V52.9043H265.297V51.9043H264.297ZM244.111 51.9043V50.9043H242.971L243.12 52.0352L244.111 51.9043ZM246.572 56.8848L245.897 57.6228L245.903 57.6275L246.572 56.8848ZM259.463 55.2148L260.209 54.5487L259.409 53.6537L258.673 54.6014L259.463 55.2148ZM263.623 59.873L264.44 60.4501L264.899 59.8003L264.369 59.2069L263.623 59.873ZM258.467 64.0918L258.884 65.0005L258.891 64.9974L258.467 64.0918ZM246.191 41.2695L245.459 40.5881L245.453 40.595L246.191 41.2695ZM244.199 46.1328L243.209 45.9952L243.051 47.1328H244.199V46.1328ZM255.977 46.1328V47.1328H256.977V46.1328H255.977ZM255.977 45.459H256.977V45.4486L256.976 45.4382L255.977 45.459ZM254.453 41.123L253.726 41.8093L253.732 41.8162L254.453 41.123ZM251.26 64.5859C246.833 64.5859 243.307 63.2365 240.59 60.592L239.195 62.0252C242.337 65.0838 246.389 66.5859 251.26 66.5859V64.5859ZM240.592 60.5943C237.906 57.962 236.527 54.4375 236.527 49.9121H234.527C234.527 54.8789 236.059 58.9521 239.193 62.0229L240.592 60.5943ZM236.527 49.9121V49.0918H234.527V49.9121H236.527ZM236.527 49.0918C236.527 46.0394 237.116 43.3522 238.27 41.008L236.476 40.1248C235.169 42.7806 234.527 45.777 234.527 49.0918H236.527ZM238.272 41.0052C239.423 38.6466 241.034 36.8642 243.102 35.6231L242.073 33.9081C239.65 35.3624 237.784 37.4471 236.474 40.1276L238.272 41.0052ZM243.105 35.6218C245.2 34.3573 247.596 33.7148 250.322 33.7148V31.7148C247.267 31.7148 244.507 32.4396 242.071 33.9094L243.105 35.6218ZM250.322 33.7148C254.43 33.7148 257.549 34.9997 259.806 37.4883L261.288 36.1445C258.584 33.1644 254.886 31.7148 250.322 31.7148V33.7148ZM259.809 37.4912C262.088 39.9842 263.297 43.5877 263.297 48.4473H265.297C265.297 43.2678 264.006 39.1173 261.285 36.1416L259.809 37.4912ZM263.297 48.4473V51.9043H265.297V48.4473H263.297ZM264.297 50.9043H244.111V52.9043H264.297V50.9043ZM243.12 52.0352C243.42 54.3073 244.334 56.1937 245.897 57.6228L247.247 56.1467C246.076 55.0758 245.35 53.6419 245.103 51.7734L243.12 52.0352ZM245.903 57.6275C247.497 59.0648 249.494 59.7598 251.816 59.7598V57.7598C249.92 57.7598 248.421 57.2047 247.242 56.142L245.903 57.6275ZM251.816 59.7598C255.355 59.7598 258.208 58.4596 260.253 55.8283L258.673 54.6014C257.045 56.6966 254.801 57.7598 251.816 57.7598V59.7598ZM258.717 55.881L262.877 60.5392L264.369 59.2069L260.209 54.5487L258.717 55.881ZM262.806 59.296C261.646 60.9389 260.068 62.2375 258.043 63.1862L258.891 64.9974C261.202 63.9148 263.061 62.401 264.44 60.4501L262.806 59.296ZM258.049 63.1831C256.025 64.113 253.768 64.5859 251.26 64.5859V66.5859C254.025 66.5859 256.572 66.0628 258.884 65.0005L258.049 63.1831ZM250.293 38.5703C248.362 38.5703 246.721 39.2336 245.46 40.5881L246.923 41.9509C247.772 41.0399 248.864 40.5703 250.293 40.5703V38.5703ZM245.453 40.595C244.238 41.9248 243.519 43.7608 243.209 45.9952L245.19 46.2704C245.465 44.2861 246.075 42.8798 246.93 41.9441L245.453 40.595ZM244.199 47.1328H255.977V45.1328H244.199V47.1328ZM256.977 46.1328V45.459H254.977V46.1328H256.977ZM256.976 45.4382C256.934 43.3969 256.376 41.6798 255.174 40.4299L253.732 41.8162C254.484 42.5976 254.941 43.7711 254.977 45.4798L256.976 45.4382ZM255.181 40.4368C253.968 39.1516 252.288 38.5703 250.293 38.5703V40.5703C251.891 40.5703 252.985 41.0241 253.726 41.8093L255.181 40.4368ZM286.943 41.2402L286.809 42.2312L287.927 42.3828L287.943 41.2546L286.943 41.2402ZM277.598 44.2578L276.689 43.8403L276.598 44.0391V44.2578H277.598ZM277.598 65V66H278.598V65H277.598ZM269.131 65H268.131V66H269.131V65ZM269.131 33.3008V32.3008H268.131V33.3008H269.131ZM277.129 33.3008L278.127 33.2389L278.069 32.3008H277.129V33.3008ZM277.363 37.0801L276.365 37.142L276.569 40.4241L278.227 37.5843L277.363 37.0801ZM287.061 33.0957L288.06 33.1101L288.071 32.3617L287.356 32.1404L287.061 33.0957ZM287.078 40.2493C285.894 40.0888 284.832 40.0059 283.896 40.0059V42.0059C284.719 42.0059 285.688 42.0792 286.809 42.2312L287.078 40.2493ZM283.896 40.0059C280.461 40.0059 277.905 41.1928 276.689 43.8403L278.506 44.6753C279.282 42.9869 280.925 42.0059 283.896 42.0059V40.0059ZM276.598 44.2578V65H278.598V44.2578H276.598ZM277.598 64H269.131V66H277.598V64ZM270.131 65V33.3008H268.131V65H270.131ZM269.131 34.3008H277.129V32.3008H269.131V34.3008ZM276.131 33.3627L276.365 37.142L278.361 37.0182L278.127 33.2389L276.131 33.3627ZM278.227 37.5843C279.773 34.9367 281.82 33.7148 284.424 33.7148V31.7148C281.012 31.7148 278.352 33.4032 276.5 36.5758L278.227 37.5843ZM284.424 33.7148C285.27 33.7148 286.049 33.8293 286.765 34.051L287.356 32.1404C286.432 31.8543 285.452 31.7148 284.424 31.7148V33.7148ZM286.061 33.0813L285.943 41.2258L287.943 41.2546L288.06 33.1101L286.061 33.0813Z" fill="#0029FF" fill-opacity="0.42"/>
<g filter="url(#filter2_df)">
<path d="M19 93.0051C129.531 79.084 191.496 77.598 302 93.0051" stroke="#00A3FF" stroke-opacity="0.69" stroke-width="3"/>
</g>
<defs>
<filter id="filter0_d" x="0" y="108" width="322.839" height="70.4706" filterUnits="userSpaceOnUse" color-interpolation-filters="sRGB">
<feFlood flood-opacity="0" result="BackgroundImageFix"/>
<feColorMatrix in="SourceAlpha" type="matrix" values="0 0 0 0 0 0 0 0 0 0 0 0 0 0 0 0 0 0 127 0"/>
<feOffset dy="5"/>
<feGaussianBlur stdDeviation="2"/>
<feColorMatrix type="matrix" values="0 0 0 0 0 0 0 0 0 0 0 0 0 0 0 0 0 0 0.43 0"/>
<feBlend mode="normal" in2="BackgroundImageFix" result="effect1_dropShadow"/>
<feBlend mode="normal" in="SourceGraphic" in2="effect1_dropShadow" result="shape"/>
</filter>
<filter id="filter1_d" x="32.7628" y="20.7578" width="74.1075" height="47.8281" filterUnits="userSpaceOnUse" color-interpolation-filters="sRGB">
<feFlood flood-opacity="0" result="BackgroundImageFix"/>
<feColorMatrix in="SourceAlpha" type="matrix" values="0 0 0 0 0 0 0 0 0 0 0 0 0 0 0 0 0 0 127 0"/>
<feOffset dx="1" dy="1"/>
<feGaussianBlur stdDeviation="0.5"/>
<feColorMatrix type="matrix" values="0 0 0 0 0 0 0 0 0 0.52 0 0 0 0 1 0 0 0 0.22 0"/>
<feBlend mode="normal" in2="BackgroundImageFix" result="effect1_dropShadow"/>
<feBlend mode="normal" in="SourceGraphic" in2="effect1_dropShadow" result="shape"/>
</filter>
<filter id="filter2_df" x="14.8126" y="77.5" width="291.395" height="21.9933" filterUnits="userSpaceOnUse" color-interpolation-filters="sRGB">
<feFlood flood-opacity="0" result="BackgroundImageFix"/>
<feColorMatrix in="SourceAlpha" type="matrix" values="0 0 0 0 0 0 0 0 0 0 0 0 0 0 0 0 0 0 127 0"/>
<feOffset dy="1"/>
<feGaussianBlur stdDeviation="2"/>
<feColorMatrix type="matrix" values="0 0 0 0 0.458667 0 0 0 0 0.0333334 0 0 0 0 1 0 0 0 1 0"/>
<feBlend mode="normal" in2="BackgroundImageFix" result="effect1_dropShadow"/>
<feBlend mode="normal" in="SourceGraphic" in2="effect1_dropShadow" result="shape"/>
<feGaussianBlur stdDeviation="1.5" result="effect2_foregroundBlur"/>
</filter>
<linearGradient id="paint0_linear" x1="68.4211" y1="9" x2="68.4211" y2="79" gradientUnits="userSpaceOnUse">
<stop offset="0.364702" stop-color="#00A3FF"/>
<stop offset="0.986115" stop-color="#00A3FF" stop-opacity="0"/>
</linearGradient>
<linearGradient id="paint1_linear" x1="197.5" y1="0" x2="197.5" y2="88" gradientUnits="userSpaceOnUse">
<stop offset="0.432455" stop-color="#3DDCFF"/>
<stop offset="1" stop-color="#8BEAFF" stop-opacity="0"/>
</linearGradient>
</defs>
</svg>
