<svg width="32" height="24" viewBox="0 0 32 24" fill="none" xmlns="http://www.w3.org/2000/svg">
<path d="M14.8444 3.69706C14.8444 2.10882 14.1333 0.167648 10.8444 0.167648C9.24444 0.167648 8.62222 0.608825 7.82222 1.13824C6.93333 1.75588 5.77778 2.55 3.46667 2.55C1.95556 2.55 0.888889 2.2853 0 1.93235C0.977778 4.31471 3.37778 7.31471 9.51111 7.31471C12.7111 7.22647 14.8444 5.37353 14.8444 3.69706Z" fill="#5B5393"/>
<path d="M21.9556 16.6677C18.8444 16.6677 16.9778 15.6971 16 14.9029C15.0222 15.6971 13.1556 16.6677 10.0444 16.6677C5.15556 16.6677 3.46667 10.2265 3.02222 8.2853C2.66667 8.10883 2.4 8.0206 2.04445 7.84413L2.48889 11.9029C3.28889 18.7853 11.8222 23.3735 16 23.7265C19.9111 23.2853 28.4444 18.7853 29.3333 11.9029L29.7778 7.75589C29.5111 7.93236 29.1556 8.10883 28.8 8.2853C28.5333 10.3147 26.8444 16.6677 21.9556 16.6677Z" fill="#5B5393"/>
<path d="M24.2667 1.13824C23.4667 0.608825 22.7556 0.167648 21.2444 0.167648C17.9556 0.167648 17.2444 2.10882 17.2444 3.69706C17.2444 5.37353 19.3778 7.22647 22.4889 7.22647C28.6222 7.22647 31.0222 4.22647 32 1.84412C31.1111 2.19706 30.0444 2.46177 28.6222 2.46177C26.3111 2.55 25.1556 1.75588 24.2667 1.13824Z" fill="#5B5393"/>
</svg>
